<svg id="Layer_1" data-name="Layer 1" xmlns="http://www.w3.org/2000/svg" viewBox="0 0 576 576"><defs><style>.cls-1,.cls-5{fill:#fff;}.cls-1,.cls-2,.cls-3,.cls-4{stroke:#231f20;stroke-miterlimit:10;}.cls-1,.cls-2,.cls-3{stroke-width:9px;}.cls-2{fill:none;}.cls-3,.cls-4{fill:#231f20;}</style></defs><title>RR Logo</title><circle class="cls-1" cx="288.86" cy="288.39" r="279.67"/><path class="cls-2" d="M139.36,52C32.25,118.7,45.31,237.25,51.12,266.72,73.86,382.05,175.86,433.39,255.2,439.39"/><path class="cls-3" d="M325.91,11.16l-.05,230.72,31.34-17.16,34.65,30.61,59.51-4.44-22.83,27.83,71.33,13.67-29.33,27.66,48,52-36.67,59.34L493,469.87,403.2,494.05l-10.36,40.51-67-21.17v45l45.5-6.5,62.45-24.28,90.49-88.22,40.27-103.88L562.23,229.1l-23-65.42-48.66-69a339.68,339.68,0,0,0-88.4-62C366.12,15.15,325.91,11.16,325.91,11.16Z"/><path class="cls-4" d="M351.86,268.39h4q31.42,18.21,62.85,36.42,18.59,10.77,37.15,21.58v117a31.4,31.4,0,0,1-3.68,2.87c-13.72,7.89-27.51,15.66-41.21,23.56q-28.1,16.21-56.11,32.57h-2a29.15,29.15,0,0,0-2.68-1.92c-14.43-8.22-28.91-16.35-43.3-24.65-18.05-10.41-36-20.95-54-31.43v-119c5.43-2.93,10.92-5.74,16.27-8.79q25.5-14.53,50.91-29.26C330.72,281.14,341.26,274.71,351.86,268.39Zm57.68,80.41H298.75c18.67,32.91,37,65.19,55.39,97.67ZM446,438.19c-9.86-27.95-19.6-55.59-29.61-84l-54.28,95.61Zm-183.61,0,83.81,11.67c-18.34-32.31-36.05-63.53-54.29-95.68C281.79,382.88,272.16,410.28,262.37,438.16Zm38.56-99H407.31l-53.15-60Zm127.26,111-.43-1-69.57,9.63v31.82Zm-78.51,8.59-69.11-9.6-.34,1.15,69.45,40Zm72.93-112.43c8.33,23.61,16.4,46.44,24.84,70.33V335.19ZM261,414.38l.6.15c8-22.7,16-45.41,24.11-68.39L261,335.46ZM442.1,328.11l-64.49-36.95c3.49,5.27,7.65,9.65,11.64,14.19q13.35,15.19,26.53,30.54c1.72,2,3.39,2.64,5.84,1.51C428.24,334.34,434.9,331.37,442.1,328.11ZM266,328.23c6.48,2.75,12.12,4.55,17.14,7.44s7.69,2.45,11.5-2.24c8.63-10.62,18.19-20.46,27.32-30.67,3.06-3.43,6-7,8.93-10.52l-.71-.79Z"/><path class="cls-5" d="M409.54,348.8l-55.4,97.67c-18.42-32.48-36.72-64.76-55.39-97.67Z"/><path class="cls-5" d="M446,438.19l-83.89,11.63,54.28-95.61C426.38,382.6,436.12,410.24,446,438.19Z"/><path class="cls-5" d="M262.37,438.16c9.79-27.88,19.42-55.28,29.52-84,18.24,32.15,35.95,63.37,54.29,95.68Z"/><path class="cls-5" d="M300.93,339.18l53.23-60,53.15,60Z"/><path class="cls-5" d="M428.19,450.18l-70,40.44V458.8l69.57-9.63Z"/><path class="cls-5" d="M349.68,458.77v31.58l-69.45-40,.34-1.15Z"/><path class="cls-5" d="M422.61,346.34l24.84-11.15v81.48C439,392.78,430.94,370,422.61,346.34Z"/><path class="cls-5" d="M261,414.38V335.46l24.71,10.68c-8.11,23-16.11,45.69-24.11,68.39Z"/><path class="cls-5" d="M442.1,328.11c-7.2,3.26-13.86,6.23-20.48,9.29-2.45,1.13-4.12.5-5.84-1.51q-13.17-15.36-26.53-30.54c-4-4.54-8.15-8.92-11.64-14.19Z"/><path class="cls-5" d="M266,328.23l64.18-36.78.71.79c-3,3.51-5.87,7.09-8.93,10.52-9.13,10.21-18.69,20.05-27.32,30.67-3.81,4.69-6.55,5.1-11.5,2.24S272.49,331,266,328.23Z"/><polygon class="cls-4" points="273.86 263.38 139.86 217.38 168.86 287.38 273.86 263.38"/><polygon class="cls-4" points="273.86 248.69 255.2 237.38 183.86 163.38 214.86 151.88 273.86 248.69"/><polygon class="cls-4" points="298.45 237.38 273.86 194.38 283.7 165.38 300.94 188.88 298.45 237.38"/><polygon class="cls-4" points="304.27 493.62 238.86 502.38 280.23 534.38 304.27 493.62"/></svg>