<?xml version="1.0" encoding="UTF-8" standalone="no"?>
<svg xmlns:rdf="http://www.w3.org/1999/02/22-rdf-syntax-ns#" xmlns="http://www.w3.org/2000/svg" height="487.5" viewBox="0 0 1072.5 487.5" width="1072.5" version="1.1" xmlns:cc="http://creativecommons.org/ns#" xmlns:dc="http://purl.org/dc/elements/1.1/">
 <path d="m60.223 486.91c-0.65075-0.28275-2.5356-2.4812-4.1885-4.8853-1.653-2.4042-4.5227-5.8598-6.3773-7.6793-16.559-16.245-13.414-63.905 5.3927-81.725l2.6063-2.4696 269.06-0.49709c147.98-0.27339 272.02-0.70422 275.62-0.95738 11.421-0.80106 75.927-1.6212 162.59-2.0672 53.652-0.27609 84.246-0.76772 84.966-1.3654 1.0327-0.85704 7.1709-0.60938 15.216 0.61392 15.611 2.3738 23.332 38.15 12.627 58.511-6.201 11.795-13.396 15.237-30.935 14.801-12.828-0.31903-12.694-0.41948-8.5614 6.4114 10.918 18.047 40.549 13.51 51.716-7.9188 11.15-21.42 11.05-19.27 9.69-206.43-1.55-214.75-1.56-210.26 0.38-216.5 3.93-12.616 17.71-31 23.24-31 0.59586 0 1.0834-0.47254 1.0834-1.0501 0-0.746-3.0541-0.88822-10.547-0.49114-29.48 1.5624-124.34 2.9538-272.58 3.9984-46.66 0.3288-86.11 0.7017-87.66 0.8287-1.54 0.127-39.3 0.5667-83.9 0.9771s-84.68 0.8013-89.07 0.8689c-4.38 0.0675-56.9 0.4502-116.71 0.8504-117.24 0.7847-111.83 0.5057-117.88 6.0767-10.128 9.315-17.486 37.042-18.94 71.378-0.27299 6.4453-0.98447 18.891-1.5811 27.656-0.77737 11.421-0.94893 52.2-0.60543 143.91 0.26364 70.383 0.14497 126.28-0.26371 124.22-0.40869-2.0625-0.78201-57.264-0.82962-122.67-0.0531-72.974-0.42997-119.56-0.97545-120.58-0.48888-0.9135-0.71844-1.8314-0.51011-2.0397 0.20832-0.20833 0.64302-8.5958 0.96599-18.639s1.0415-23.534 1.5967-29.979c0.55525-6.4453 1.0549-13.195 1.1104-15l0.09-3.279-6.09-0.312c-16.84-0.864-20.117 1.297-21.779 14.375-1.159 9.119-2.137 10.578-2.881 4.296-0.711-6.009-5.159-15.261-7.918-16.472-1.16-0.509-2.11-1.247-2.11-1.64 0-7.1881-4.6799 1.7962-5.1768 9.9383-0.26078 4.2727-0.7713 5.8025-2.2917 6.8675-1.0759 0.7536-1.8395 2.0767-1.6969 2.9402 0.16355 0.9904-0.46997 1.6741-1.716 1.852-1.3756 0.19639-2.3026 1.3746-3.0535 3.8809-2.1498 7.1754-7.4314 8.2065-10.571 2.0638-0.84558-1.6543-2.6775-4.0645-4.071-5.356-1.3935-1.2914-2.3074-2.9376-2.0309-3.6582 0.27651-0.72057 0.09557-1.4459-0.40209-1.6117-0.498-0.166-1.05-4.617-1.227-9.89-0.342-10.21-1.201-12.43-4.809-12.43-2.174 0-3.267 1.583-3.267 4.731 0 4.9898-6.7563 3.4913-6.9346-1.5381-0.05528-1.5588-0.59796-2.6842-1.2685-2.6306-0.64453 0.05156-1.8047 0.15703-2.5781 0.23438-0.977 0.0977-1.4062 1.2216-1.4062 3.682 0 4.4474-2.2039 7.7086-5.2094 7.7086-1.9201 0-2.2906-0.45491-2.2906-2.8125 0-3.1091-2.8315-6.5593-5.3906-6.5683-0.90234-0.0032-2.8911-0.65782-4.4194-1.4548-1.8296-0.95405-3.9428-1.2523-6.1867-0.87322-6.3639 1.075-11.884-6.338-8.1441-10.936 1.8922-2.327 7.1679-4.078 8.4428-2.803 1.5073 1.507 3.5103 1.335 3.5103-0.301 0-1.6106 2.4604-3.0599 7.8372-4.6166 4.5976-1.3311 5.5779-3.8573 2.421-6.2386l-2.1268-1.6043 2.046-1.095c3.4423-1.8422 6.8701 0.50053 8.3371 5.698 1.6361 5.7968 5.8606 7.4768 5.8606 2.3306 0-2.3968 1.6168-4.3509 3.5998-4.3509 2.1416 0 3.838 2.9792 3.8704 6.7969 0.0231 2.7235 0.39947 3.5089 1.6704 3.4858 4.3392-0.07886 6.8129-5.2396 6.9677-14.536 0.08138-4.8873 0.6132-7.3523 2.1164-9.8089 1.1042-1.8047 2.7894-5.0665 3.7449-7.2484 2.8812-6.5797 10.843-6.6802 10.843-0.13681 0 2.2359 0.39215 2.6977 2.2906 2.6977 1.2598 0 2.8419 0.76606 3.5156 1.7024 0.67377 0.9363 1.9633 1.9777 2.8657 2.3143 0.96926 0.36154 1.6406 1.5831 1.6406 2.9851 0 2.4622-1.4049 3.2519-2.1373 1.2013-0.23019-0.64453-0.70731-0.90569-1.0603-0.58036-0.35296 0.32533 0.01572 1.249 0.8193 2.0526 0.80357 0.80357 1.7241 3.3805 2.0457 5.7264 0.7141 5.2099 2.5396 7.1689 4.0502 4.3463 0.56972-1.0645 1.5484-1.9488 2.1748-1.965 1.4281-0.03695 3.6818-3.1955 5.3303-7.4705 2.4362-6.3177 4.3581-5.8307 6.4741 1.6406 0.87762 3.0987 1.5755 3.9844 3.1398 3.9844 1.1062 0 3.0206 0.94922 4.2541 2.1094 3.1565 2.9688 25.166 3.3009 24.92 0.37609-0.25044-2.9803 8.6081-20.557 12.654-25.108 7.7259-8.6898-0.9246-7.986 106.55-8.6685 52.078-0.33069 106.5-0.80694 120.94-1.0583 14.438-0.25139 66.947-0.70086 116.69-0.99882 49.74-0.29796 90.662-0.66919 90.938-0.82496 0.46518-0.26312 31.609-0.58138 196.91-2.0122 34.805-0.30126 78.047-0.92628 96.094-1.3889 84.866-2.1756 80.741-3.2804 87.782 23.511 2.6396 10.044 3.272 10.811 6.5108 7.8949 0.81403-0.73283 2.1743-1.3324 3.0229-1.3324 1.8137 0 3.5395-3.1023 5.8744-10.559 1.9039-6.0806 2.4792-5.9799 4.0876 0.71551 1.4074 5.8585 3.3368 8.9062 5.6385 8.9062 1.2142 0 1.9749 0.89268 2.3966 2.8125 1.269 5.7777 3.2208 2.1676 5.2242-9.6629 1.1689-6.9027 4.3248-11.9 7.5154-11.9 1.1442 0 1.7917-0.65302 1.7917-1.807 0-2.3087 4.267-5.693 7.1778-5.693 2.4409 0 3.5839 1.9365 4.5044 7.6311 0.3592 2.2231 1.1511 3.5691 2.272 3.8622 1.3357 0.34928 1.942 1.9417 2.7103 7.1184 1.7761 11.967 9.0836 20.203 10.52 11.857 0.8341-4.8471 7.5032-4.0507 7.5032 0.89604 0 1.14 0.2822 2.3549 0.627 2.6998 0.9758 0.97566 4.0605-2.2702 4.0605-4.2724 0-1.9523 4.3891-8.2296 5.7541-8.2296 0.4642 0 0.5871 1.0242 0.2729 2.2761-0.9803 3.906 0.4067 6.0539 5.257 8.1405 2.527 1.0871 5.0813 2.563 5.6763 3.28 0.6443 0.77628 2.8725 1.3035 5.5092 1.3035 4.7829 0 6.6462 1.302 8.3764 5.8529 1.123 2.9538 0.4824 5.3971-1.415 5.3971-0.7182 0-1.3059 0.39345-1.3059 0.87432 0 1.6057-3.7057 2.0755-6.9936 0.88664-2.8047-1.0142-3.4892-0.95989-4.9871 0.39561-0.9548 0.86414-3.185 1.8465-4.9558 2.183-5.6234 1.0685-7.0929 4.403-4.4738 10.152 1.4935 3.2776 0.3241 4.0431-2.7125 1.7759-1.6684-1.2456-3.0704-3.7101-4.1177-7.2378-2.5219-8.4952-5.5095-10.892-5.5095-4.4199 0 2.0432-0.5041 3.8399-1.1365 4.0507-1.9497 0.64993-5.5616-0.41021-5.9717-1.7528-1.4072-4.606-1.2429-4.5028-3.6182-2.2713-2.5405 2.3867-3.0646 4.0423-4.2382 13.388-0.7642 6.0865-1.1475 6.9343-4.5281 10.016-2.2833 2.0811-4.1637 4.9094-4.9256 7.4081-2.2313 7.3187-7.3019 6.7582-9.001-0.99497-0.3108-1.418-1.0826-2.5781-1.7151-2.5781-3.6575 0-6.7656-5.3058-7.4348-12.692-0.84947-9.3743-3.3385-13.648-5.712-9.808-0.31866 0.51562-1.3902 0.9375-2.3812 0.9375-1.9817 0-2.0197 0.10549-4.543 12.608-1.9329 9.5773-3.4405 11.161-4.3383 4.5574-1.2682-9.3285-2.6713-12.923-5.1714-13.247-1.2739-0.16538-2.8391-0.97833-3.4783-1.8066-1.747-2.2637-1.9957-1.4352-2.6131 8.7109-1.4419 23.69-7.0838 41.335-16.768 52.441l-4.0719 4.6701-19.099 0.34554c-10.504 0.19005-19.238 0.47824-19.409 0.64042-0.34367 0.32633-0.0609 196.22 0.29294 202.96 1.0256 19.506 0.50005 72.255-0.84058 84.375-5.9875 54.13-14.642 63.455-58.204 62.712-40.324-0.68829-160.05 0.12475-230.16 1.5629-10.57 0.21685-131.44 0.63639-268.59 0.93232-160.48 0.34625-254.05 0.89009-262.5 1.5257-20.396 1.5347-23.352 1.6689-24.621 1.1176zm240.42-3.0758c122.82-0.46922 268.15-1.4044 322.97-2.0782 54.816-0.67379 127.83-1.2397 162.24-1.2576 62.423-0.0324 66.194-0.18288 58.51-2.3341-5.9771-1.6735-127.05-1.4452-227.03 0.42813-36.57 0.68522-169.67 1.4064-359.37 1.9471-116.43 0.33188-174.57 0.81556-176.25 1.4664-1.3791 0.53411-6.6888 0.82799-11.799 0.65307-6.5201-0.22318-9.4026 0.01-9.6634 0.78154-0.5196 1.5374 2.8535 2.0571 10.518 1.6206 3.6094-0.20557 107.05-0.75767 229.87-1.2269zm-10.637-7.1248c182.11-0.33316 303.73-0.97711 352.65-1.8672 44.478-0.8093 156.85-1.883 176.02-1.6818 18.004 0.18907 20.034-0.11085 17.12-2.5297-1.3263-1.1007-106.53-1.5207-127.04-0.50711-3.8672 0.19106-42.047 0.63989-84.844 0.99741s-84.773 0.78626-93.281 0.95275c-8.5078 0.16649-103.01 0.53876-210 0.82727-192.44 0.5189-265.24 1.0818-266.21 2.0586-2.7038 2.7038 3.7334 3.3412 27.473 2.7201 13.326-0.34864 106.98-0.7853 208.13-0.97034zm-90.323-6.5548c276.89-1.025 364.38-1.4395 395.62-1.8741 18.305-0.25462 56.695-0.68476 85.312-0.95584 28.617-0.2711 74.18-0.71085 101.25-0.97724s49.556-0.46823 49.968-0.44853c0.41234 0.0197 0.38256-0.62026-0.0662-1.4221-0.76291-1.3632-100.74-2.0379-133.34-0.89983-4.3828 0.15299-46.57 0.54579-93.75 0.87291-84.645 0.58688-147.03 1.2571-179.06 1.9235-9.0234 0.18776-97.103 0.46868-195.73 0.62428-160.47 0.25316-179.3 0.43394-179.05 1.7193 0.34064 1.7934 11.14 2.7964 24.161 2.244 4.8984-0.2078 61.008-0.57069 124.69-0.80643zm272.34-5.5962c44.859-0.28267 95.906-0.71632 113.44-0.96366 17.531-0.24733 77.016-0.68117 132.19-0.96409 98.442-0.50482 112.03-0.78111 112.03-2.2777 0-0.40976-0.70445-2.591-1.5654-4.8472-6.4912-17.01 0.4593-53.128 12.165-63.216l3.9314-3.3879-10.079 0.31331c-5.5436 0.17231-10.079-0.0611-10.078-0.51876 0.00094-0.89539-147.17 0.0283-203.44 1.2769-18.305 0.40618-48.258 0.83968-66.562 0.96333-18.305 0.12366-35.18 0.33048-37.5 0.4596-2.3203 0.12913-106.42 0.32193-231.33 0.42845-192.9 0.1645-227.11 0.38947-227.11 1.4936 0 0.71496-1.9869 4.5726-4.4154 8.5726-11.417 18.805-13.519 36.103-6.9845 57.481l1.5759 5.1562 17.803 0.53298c20.11 0.60206 282.07 0.27746 405.93-0.50299zm368.67-10.52c-0.90234-0.2358-2.3789-0.2358-3.2812 0-0.90234 0.23581-0.16406 0.42875 1.6406 0.42875s2.543-0.19294 1.6406-0.42875zm20.142-0.82027c10.05-3.4245 17.504-17.192 17.576-32.463 0.0204-4.3145-0.34695-4.53-6.61-3.8784l-5.0925 0.52987-0.17258 7.1544c-0.0949 3.9349-0.76035 9.6856-1.4787 12.779l-1.3062 5.625-10.474 0.26508c-11.513 0.29136-11.591 0.34788-8.0904 5.8924 3.5856 5.6799 7.7773 6.7768 15.649 4.0948zm-22.24-3.22c-0.31867-0.51563-1.5843-0.9375-2.8125-0.9375s-2.4938 0.42187-2.8125 0.9375c-0.34549 0.55901 0.78996 0.9375 2.8125 0.9375s3.158-0.37849 2.8125-0.9375zm0.36856-4.3286c0.92452-0.78966-2.9781-1.433-5.2436-0.86437-1.9595 0.49179-2.224 0.82162-1.1776 1.4684 1.1662 0.72077 5.3286 0.32926 6.4212-0.60398zm-1.3061-4.1089c0.34481-0.55793-0.77152-0.9375-2.7572-0.9375-1.8351 0-3.3366 0.42187-3.3366 0.9375 0 0.51562 1.2407 0.9375 2.7572 0.9375 1.5164 0 3.0179-0.42188 3.3366-0.9375zm21.333-2.3438c-0.30071-1.2278-18.052-1.7834-18.052-0.56497 0 1.2238 3.8167 1.7496 11.719 1.6146 3.8488-0.0657 6.4676-0.4998 6.3329-1.0496zm-22.667-1.6406c0.0397-0.1289 0.28725-3.1642 0.55026-6.7452 0.57821-7.872 3.2382-15.374 6.8048-19.192 1.4513-1.5536 2.4129-3.0504 2.137-3.3264-0.89868-0.89868-9.4374-0.52774-10.033 0.43585-0.34053 0.55099 0.66735 0.9375 2.4447 0.9375 3.56 0 3.317 0.62105-0.51484 1.3159-3.8931 0.70595-4.8706 2.7523-1.6696 3.4951l2.5523 0.5922-2.4778 0.11092c-2.6172 0.11716-3.9178 1.9833-3.0175 4.3297 0.29681 0.77344 0.0727 1.4062-0.49817 1.4062-2.297 0-0.85647 1.8849 1.5403 2.0155l2.5781 0.14046-2.5781 0.39055c-3.0956 0.46895-3.4692 3.0246-0.46875 3.2062l2.1094 0.12767-2.1094 0.40628c-2.6109 0.5029-2.8071 3.0884-0.23438 3.0884 1.0312 0 1.875 0.42187 1.875 0.9375 0 0.51562-0.84375 0.9375-1.875 0.9375s-1.875 0.42187-1.875 0.9375c0 0.51562 1.0547 0.9375 2.3438 0.9375s2.3438 0.42187 2.3438 0.9375c0 0.51562-1.0298 0.9375-2.2884 0.9375s-2.5492 0.42187-2.8678 0.9375c-0.33804 0.54696 0.61526 0.9375 2.2884 0.9375 1.5773 0 2.9002-0.10547 2.9399-0.23438zm23.621-2.5176c0.64163-2.4536-0.844-2.873-10.176-2.873-10.728 0-10.091 1.7262 0.7798 2.114l8.6719 0.30936-9.196 0.19457c-11.919 0.25219-11.301 2.0696 0.70445 2.0696 7.8559 0 8.7896-0.18383 9.2161-1.8145zm0.60357-4.1975c-0.81623-0.80859-10.901-1.1496-15.391-0.52038-3.7133 0.52031-2.5604 0.68286 5.5469 0.78209 5.6289 0.0689 10.059-0.0488 9.8438-0.26171zm-3.8748-3.1134c-2.4319-0.19242-6.6507-0.19441-9.375-0.005-2.7243 0.18997-0.73455 0.34741 4.4217 0.34984 5.1562 0.003 7.3852-0.15299 4.9533-0.34541zm3.8748-2.7208c0.21484-0.18773-3.9233-0.34133-9.196-0.34133-6.3389 0-9.3844 0.32715-8.9897 0.96569 0.54232 0.87751 17.118 0.30842 18.186-0.62436zm-2.0313-2.8878c-1.418-0.21481-3.7383-0.21481-5.1562 0-1.418 0.2148-0.25781 0.39055 2.5781 0.39055s3.9961-0.17575 2.5781-0.39055zm18.637-7.106c1.7039-1.7039-1.2312-4.3979-4.6837-4.2991-7.9056 0.22629-10.016 1.5217-2.9375 1.8032 3.6094 0.14353 5.0859 0.41279 3.2812 0.59837-5.3755 0.55277-7.5 1.2118-7.5 2.3264 0 0.91871 10.887 0.52432 11.84-0.42892zm-0.59001-6.285c0-0.54629-3.1066-0.9375-7.4447-0.9375-4.0946 0-7.7054 0.42187-8.0241 0.9375-0.36904 0.59711 2.334 0.9375 7.4447 0.9375 4.7244 0 8.0241-0.38552 8.0241-0.9375zm-1.2065-2.4565c-0.31982-0.31984-5.1362-0.52447-10.703-0.45474-6.5178 0.0817-9.6478-0.18322-8.7908-0.74391 0.73195-0.4789 3.4741-0.6983 6.0938-0.48758 2.6196 0.21072 6.6614 0.01 8.9817-0.44685 3.5945-0.70716 2.7343-0.84517-5.8128-0.93269-7.8202-0.0801-10.198 0.19387-10.784 1.2427-0.44655 0.79794-2.6592 1.4922-5.4372 1.706-2.5764 0.19832 2.4524 0.43662 11.175 0.52956 8.7226 0.0929 15.598-0.0927 15.278-0.41253zm-3.46-5.03c0-1.0732-1.3364-1.0732-4.6875 0-2.0917 0.66988-1.9657 0.76065 1.1719 0.84405 1.9336 0.0514 3.5156-0.32843 3.5156-0.84405zm65.969-275.98c10.609-4.4329 19.577-26.562 21.795-53.784l0.63038-7.7344h-6.5997-6.5997l-0.61997 7.7344c-2.0433 25.491-9.3213 41.468-19.783 43.431-4.2826 0.80341-3.9117 3.9653 1.0087 8.6003 3.5599 3.3533 5.527 3.6925 10.168 1.7532zm-28.47-9.02c1.0439-0.67462 0.48609-0.91249-2.1647-0.92315-2.145-0.008-3.3396 0.36002-2.9915 0.92315 0.73229 1.1849 3.3228 1.1849 5.1562 0zm5.1562-4.6875c0.36378-0.5886-1.709-0.9375-5.5697-0.9375-3.4744 0-6.1491 0.40778-6.1491 0.9375 0 0.5198 2.4816 0.9375 5.5697 0.9375 3.0633 0 5.8304-0.42187 6.1491-0.9375zm-1.2201-3.75c0.98971 0 1.5387-0.42187 1.2201-0.9375-0.70695-1.1439-11.409-1.2595-12.107-0.13076-0.96788 1.5661 0.90383 2.1784 4.9719 1.6265 2.2634-0.30704 4.925-0.55825 5.9147-0.55825zm0.75132-4.6875c0-0.53572-2.8125-0.9375-6.5625-0.9375s-6.5625 0.40178-6.5625 0.9375 2.8125 0.9375 6.5625 0.9375 6.5625-0.40178 6.5625-0.9375zm-0.46875-4.2188c0-1.0957-7.2928-1.7792-10.472-0.98132-4.5931 1.1528-2.1079 2.4699 4.1436 2.196 3.4805-0.15247 6.3281-0.69908 6.3281-1.2147zm-0.48-3.189c0-0.82497-9.3986-1.8101-11.262-1.1805-2.8449 0.96101-0.12156 2.0313 5.1687 2.0313 3.3516 0 6.0938-0.38283 6.0938-0.85073zm24.85-2.9c0.35428-0.5733-1.1024-0.9375-3.75-0.9375s-4.1043 0.3642-3.75 0.9375c0.31867 0.51562 2.0062 0.9375 3.75 0.9375s3.4313-0.42188 3.75-0.9375zm-868.6-0.978c0-0.53823-0.60931-0.85464-1.354-0.70312-0.74471 0.15151-1.9969-0.56828-2.7827-1.5995-1.4228-1.8673-1.4288-1.867-1.4585 0.07812-0.0164 1.0742 0.25144 2.2344 0.59518 2.5781 1.0023 1.0023 5 0.71958 5-0.35359zm843.75-4.412c0.0133-22.329 7.4711-56.484 12.333-56.484 0.43363 0 0.78842-0.43771 0.78842-0.97268 0-0.62123-3.1333-0.87528-8.6719-0.70312-8.9721 0.27889-13.734 3.0821-5.2358 3.0821 1.8898 0 3.7531 0.31641 4.1406 0.70312 0.38753 0.38672-1.4855 0.70312-4.1623 0.70312-5.1838 0-5.5803 0.3863-7.2584 7.0726-0.55892 2.2269-0.41574 2.3024 4.3675 2.3024 5.968 0 5.6993 0.84032-0.4152 1.2981-7.0454 0.52745-7.5779 4.3269-0.60634 4.3269 2.0787 0 3.7794 0.38471 3.7794 0.85491s-1.9891 0.78661-4.4202 0.70312c-3.5312-0.12126-4.4878 0.17819-4.7562 1.4888-0.26599 1.2987 0.31324 1.6436 2.7796 1.655 1.7136 0.0079 3.7484 0.42331 4.5219 0.92314 1.0171 0.65729 0.17388 0.91276-3.0469 0.92314-3.8233 0.01232-4.4531 0.27953-4.4531 1.8894 0 1.5972 0.625 1.875 4.2188 1.875 2.4102 0 4.2188 0.43646 4.2188 1.0181 0 0.58911-1.4814 0.92893-3.5156 0.80646-7.8098-0.47018-8.4878 2.0939-0.9375 3.5454l4.9219 0.94619-4.9219 0.12316c-5.3822 0.13468-7.509 2.8637-2.3438 3.0074 7.2356 0.20131 8.8792 1.8033 1.8501 1.8033h-5.2593l0.22094 3.5156 0.22094 3.5156 4.8821 0.28337c6.3683 0.36963 6.3363 1.6835-0.0398 1.6317-3.7678-0.03065-4.9219 0.28971-4.9219 1.3662 0 1.041 1.1587 1.4285 4.4606 1.4919 6.4412 0.12363 6.7177 1.3206 0.30505 1.3206-3.8974 0-5.2816 0.32461-4.997 1.1719 0.26823 0.79855 1.972 1.0671 5.3482 0.84292 3.4361-0.22814 4.759-0.01266 4.3167 0.70312-0.35082 0.56764-2.7223 1.0321-5.27 1.0321s-4.6322 0.42188-4.6322 0.9375c0 1.1147 0.91699 1.2458 6.7969 0.9723 2.7202-0.12654 4.4531 0.19121 4.4531 0.81652 0 0.62616-2.1843 1.0237-5.625 1.0237-3.125 0-5.625 0.41667-5.625 0.9375 0 0.52885 2.6562 0.9375 6.0938 0.9375h6.0938l0.003-5.3906zm-8.9-13.36c-1.4577-0.62638-1.0005-0.82038 2.054-0.87161 2.161-0.03624 4.1898 0.35598 4.5085 0.87161 0.70409 1.1392-3.9113 1.1392-6.5625 0zm6.0938-35.625c-3.1853-0.67048-3.1495-0.69428 1.2272-0.81409 2.7948-0.0765 4.2882 0.23294 3.929 0.81409-0.31867 0.51562-0.87092 0.88196-1.2272 0.81409-0.35628-0.06788-2.1244-0.43422-3.929-0.81409zm29.062 50.625c0-0.51562-1.8735-0.9375-4.1634-0.9375s-4.4242 0.42188-4.7428 0.9375c-0.3571 0.57781 1.2403 0.9375 4.1634 0.9375 2.6086 0 4.7428-0.42188 4.7428-0.9375zm0.42872-2.7477c0.84122-1.3611-0.47156-1.6127-6.2898-1.2057-2.9657 0.20745-5.1557 0.75997-4.8665 1.2278 0.69302 1.1213 10.462 1.102 11.156-0.02208zm-872.53-1.077c-0.903-0.525-1.641-1.778-1.641-2.784 0-1.9281-1.3718-2.4636-2.3318-0.91029-0.98451 1.593 1.3704 4.7081 3.5366 4.6784 1.8612-0.02556 1.9064-0.12752 0.43576-0.98408zm941.53-1.841c0-0.53823-0.6093-0.85464-1.354-0.70312-0.7447 0.15151-1.9969-0.56828-2.7827-1.5995-1.4229-1.8673-1.4288-1.867-1.4585 0.07812-0.016 1.0742 0.2514 2.2344 0.5952 2.5781 1.0023 1.0023 5 0.71958 5-0.3536zm-68.49-0.896c0-0.51562-2.2954-0.9375-5.1009-0.9375s-5.3617 0.42188-5.6803 0.9375c-0.36192 0.5856 1.5528 0.9375 5.1009 0.9375 3.1619 0 5.6803-0.41565 5.6803-0.9375zm0.9375-3.8053c0-1.0515-4.6354-1.131-9.8438-0.16873-3.6302 0.67068-3.5554 0.70806 2.3438 1.1705 6.5175 0.51092 7.5 0.37969 7.5-1.0018zm-871.12-1.07c1.55-1.55 1.409-4.035-0.309-5.461-2.169-1.8-6.066 0.26-6.066 3.207 0 3.1594 4.041 4.5885 6.375 2.2545zm-2.993-1.295c-0.887-2.311-0.681-3.205 0.736-3.205 1.4655 0 2.732 2.5256 1.923 3.8346-0.80727 1.3062-2.0279 1.0171-2.6599-0.63003zm939.47 0.47c-0.9-0.526-1.6-1.778-1.6-2.784 0-1.9281-1.3717-2.4636-2.3318-0.91029-0.9845 1.593 1.3704 4.7081 3.5367 4.6784 1.8612-0.02556 1.9064-0.12752 0.4357-0.98408zm-65.35-0.862c0-0.536-2.81-0.938-6.56-0.938s-6.5625 0.40178-6.5625 0.9375 2.8125 0.9375 6.5625 0.9375 6.5625-0.40178 6.5625-0.9375zm0-2.8125c0-0.55014-2.8084-0.88651-6.7969-0.81409-5.4556 0.09906-6.1494 0.25971-3.5156 0.81409 4.9887 1.0501 10.312 1.0501 10.312 0zm-871.41-4.858c2.7219-2.3667 2.8929-3.4657 0.93025-5.9799-1.3488-1.7278-1.3909-1.6888-0.83281 0.77049 0.34541 1.5221 0.11069 3.1652-0.56916 3.9844-1.4861 1.7907-2.8024 1.785-2.8024-0.01217 0-0.77344 0.42545-1.4062 0.94544-1.4062 0.56042 0 0.46858-0.76358-0.22551-1.875-1.5631-2.503-2.4368-2.3628-3.1569 0.50653-1.136 4.5261 2.3242 6.9568 5.7111 4.0119zm871.41 1.107c0-0.54101-2.9503-0.9375-6.9759-0.9375-3.8368 0-7.2367 0.42188-7.5553 0.9375-0.36796 0.59538 2.1778 0.9375 6.9759 0.9375 4.4119 0 7.5553-0.39005 7.5553-0.9375zm68.25-0.1875c1.5497-1.5497 1.4091-4.0346-0.309-5.4605-2.1694-1.8004-6.066 0.25909-6.066 3.2061 0 3.1594 4.041 4.5885 6.375 2.2545zm-2.9934-1.2954c-0.8866-2.3103-0.6809-3.2046 0.7368-3.2046 1.4655 0 2.7321 2.5256 1.923 3.8346-0.8072 1.3062-2.0278 1.0171-2.6598-0.63003zm-879.94 0.545c0-0.55601-3.4559-0.9375-8.4928-0.9375-5.4232 0-8.2834 0.33885-7.9134 0.9375 0.31868 0.51562 4.1404 0.9375 8.4928 0.9375 4.6506 0 7.9134-0.38654 7.9134-0.9375zm815.16-1.875c0.36694-0.59366-2.04-0.9375-6.5625-0.9375-4.5226 0-6.9294 0.34384-6.5625 0.9375 0.31867 0.51562 3.2718 0.9375 6.5625 0.9375s6.2438-0.42188 6.5625-0.9375zm-881.93-16.829c0.23453-11.135 0.10207-12.395-1.2486-11.876-0.831 0.31888-1.6873 0.57979-1.903 0.57979-0.62918 0-0.45105 21.255 0.19218 22.932 1.6525 4.3063 2.7113 0.14358 2.9594-11.635zm62.55 11.062c-6.9739-0.94069-10.781-0.90604-10.781 0.09812 0 0.94675 11.671 1.7697 14.062 0.99162 0.77344-0.2516-0.70312-0.74199-3.2812-1.0897zm831.41 1.1218c6.4953-0.03052 9.113-0.36069 8.8607-1.1176-0.39291-1.1788-40.592-1.2172-42.412-0.04054-1.5584 1.0079 4.7969 1.5995 14.957 1.3925 5.1562-0.10507 13.523-0.21054 18.594-0.23438zm-924.61-2.593c0.79179-2.0826 0.66872-2.7703-0.67114-3.75-2.0193-1.4766-6.9074-1.5848-6.9074-0.1529 0 0.58528 0.8267 0.83066 1.875 0.55652 1.5381-0.40221 1.875-0.02876 1.875 2.0782 0 4.4819 2.3151 5.2488 3.8285 1.2682zm50.435-0.49662c0.48386-1.6758 0.9178-2.3438 0.9643-1.4844 0.27068 5.0022 4.6975 1.137 4.7422-4.1406 0.03155-3.7195-3.1117-5.2547-4.3187-2.1094-1.1752 3.0625-1.7524 1.0385-1.9045-6.6783-0.2714-13.766-1.8163-10.763-1.9838 3.8566-0.1538 13.419 0.66985 16.896 2.5005 10.556zm929.82 1.0085c2.5418-2.3879 2.6822-3.5093 0.7492-5.9855-1.3488-1.7278-1.391-1.6888-0.8329 0.77049 0.3455 1.5221 0.1107 3.1652-0.5691 3.9844-1.4862 1.7907-2.8024 1.785-2.8024-0.01217 0-0.77344 0.4254-1.4062 0.9455-1.4062 0.5604 0 0.4685-0.76358-0.2256-1.875-1.5631-2.503-2.4367-2.3628-3.1569 0.50653-1.1479 4.5735 2.5886 7.1211 5.8922 4.0176zm-966.28-3.999c0-5.0355-1.1793-7.2198-2.9447-5.4544-1.3619 1.3619 0.08319 10.555 1.6592 10.555 0.93146 0 1.2855-1.4048 1.2855-5.1009zm31.376-21.073c-1.1071-7.6283-2.2846-2.0067-2.2995 10.979-0.01001 8.6908 0.34023 12.842 1.1575 13.719 1.3523 1.4513 2.2184-17.282 1.142-24.698zm-19.375 17.641-0.282-5.999-1.653 3.023c-1.0887 1.9918-2.6873 3.2913-4.6861 3.8092-4.9862 1.2921-4.5524 3.9489 0.64474 3.9489 3.4103 0 4.2875 0.32608 4.2875 1.5938 0 1.1146 0.29638 1.2974 0.98585 0.6079 0.54954-0.54954 0.86072-3.6406 0.70312-6.9844zm14.988 3.3765c0.34875-4.8325-2.5719-7.2712-5.5167-4.6062-1.7595 1.5924-2.4758 6.8844-1.1158 8.2444 2.2922 2.2922 6.3657 0.05762 6.6324-3.6382zm-4.8409 2.5334c-0.25422-0.41134-0.11989-1.3018 0.29852-1.9788 0.4184-0.67699 0.5523-2.0279 0.29755-3.0021-0.30294-1.1584 0.02599-1.7712 0.95078-1.7712 1.5992 0 2.8449 3.7779 1.9848 6.0193-0.59801 1.5584-2.746 2.0041-3.5317 0.73286zm26.963 0.21972c0.30934-0.80612 0.98729-1.2031 1.5066-0.88217 0.6161 0.38077 0.94412-3.833 0.94412-12.128 0-6.9914-0.20236-12.712-0.4497-12.712-1.1471 0-4.2378 7.7717-4.2378 10.656 0 2.7961-0.25874 3.1632-1.9229 2.728-1.809-0.47308-1.9062-0.15311-1.6406 5.404 0.30407 6.3629 2.5749 9.3696 2.6854 3.5557 0.05602-2.9461 0.11084-2.9965 0.95755-0.87975 0.49397 1.2349 0.64974 3.0279 0.34615 3.9844-0.66669 2.1006 1.0128 2.3541 1.8112 0.27346zm-82.102-2.051c-0.1737-0.902-0.9372-1.64-1.6965-1.64-0.75931 0-1.5228 0.73828-1.6965 1.6406-0.2217 1.15 0.2845 1.64 1.6965 1.64s1.9182-0.48952 1.6965-1.6406zm117.5 0.704c0.50389 0 0.65543-0.42188 0.33675-0.9375-0.74118-1.1993-16.406-1.2401-16.406-0.04283 0 0.84294 11.208 1.8567 13.905 1.2577 0.6867-0.15255 1.6608-0.27736 2.1647-0.27736zm843.42-10.701c-0.38606-9.2543-2.2033-9.0506-3.0224 0.3388-0.72319 8.2904-0.0953 10.788 1.9936 7.9314 0.88603-1.2117 1.2134-3.8437 1.0288-8.2702zm-933.55 7.888c0-0.51562-0.39698-0.9375-0.88217-0.9375s-1.1429 0.42188-1.4616 0.9375c-0.31867 0.51562 0.0783 0.9375 0.88217 0.9375s1.4616-0.42188 1.4616-0.9375zm979.69-0.99283c0-0.4852-0.4219-0.88217-0.9375-0.88217s-0.9375 0.65771-0.9375 1.4616c0 0.80387 0.4219 1.2008 0.9375 0.88217 0.5156-0.31867 0.9375-0.97638 0.9375-1.4616zm-887.82-1.255c0-2.171-0.27953-2.2608-8.2031-2.6351-10.083-0.47639-13.283 0.89658-9.9219 4.2577 2.048 2.048 18.125 0.60874 18.125-1.6225zm814.32 1.2358c15.547-0.1228 21.683-0.74448 19.528-1.9783-1.3862-0.79348-41.656 0.34117-41.656 1.1737 0 0.74699 3.7119 1.6704 4.7852 1.1904 0.31154-0.13932 8.1162-0.31294 17.344-0.38582zm55.245-15.641c0.44278-14.137-0.26719-16.526-3.8473-12.946-1.3915 1.3915-1.9739 21.979-0.75084 26.542l0.56278 2.0999 1.8454-2.346c1.5412-1.9594 1.9022-4.1594 2.19-13.35zm34.026 7.5277c-0.2922-6.5077-0.9292-8.3456-2.5458-7.3464-1.1152 0.68927-1.4906 13.835-0.4254 14.9 1.7942 1.7942 3.2274-1.8495 2.9712-7.554zm-929.69 5.1402c0.5287-3.0489-0.45644-8.2814-1.5534-8.2508-1.63 0.045-1.789 10.361-0.2 10.361 0.73905 0 1.5083-0.94922 1.7095-2.1094zm863.66-3.2073c0.54666-4.6513-0.32156-8.2072-1.6624-6.8083-0.39159 0.40855-0.92606 8.7671-0.70031 10.953 0.32653 3.1633 1.8095 0.56182 2.3627-4.1448zm97.133 4.3792c0-0.51562-0.6577-0.9375-1.4616-0.9375s-1.2008 0.42188-0.8821 0.9375c0.3186 0.51562 0.9764 0.9375 1.4615 0.9375 0.4853 0 0.8822-0.42188 0.8822-0.9375zm-1035-3.474c1.0768-2.8322 0.22756-6.5223-1.6685-7.2498-1.1047-0.42391-1.3026-0.0556-0.87829 1.6348 0.32096 1.2788-0.05855 3.0475-0.91682 4.2728-0.80546 1.15-1.2319 2.697-0.94759 3.4378 0.73062 1.904 3.3667 0.65165 4.4112-2.0956zm947.97-21.838l-0.75966-5.1562-1.795 4.6875c-2.86 7.445-2.62 19.242 0.44 22.506l2.3438 2.4966 0.26203-9.6885c0.14-5.329-0.08-12.009-0.5-14.845zm32.971 23.806c0.8156-0.31298 1.4701-1.4731 1.4544-2.5781-0.025-1.8152-0.1207-1.8507-0.9841-0.36845-0.5256 0.90234-1.5923 1.6406-2.3706 1.6406-0.7782 0-1.1428-0.44036-0.8101-0.97857 0.6502-1.0522-1.129-3.7089-2.4839-3.7089-0.9462 0-1.0909 2.898-0.2537 5.0796 0.5869 1.5297 2.8527 1.9098 5.448 0.91387zm-940.98-3.81c0.23415-0.71158-0.35507-0.91076-1.6739-0.56587-1.7394 0.45485-1.9424 0.23967-1.3966-1.48 0.46776-1.4738 0.24544-2.0123-0.83076-2.0123-1.5019 0-2.0999 3.7445-0.80488 5.0395 0.97973 0.97973 4.2879 0.28986 4.7062-0.9814zm60.719 0.629c-0.31965-0.51721-4.5226-0.9375-9.375-0.9375s-9.0554 0.42029-9.375 0.9375c-0.37238 0.60252 2.9774 0.9375 9.375 0.9375s9.7474-0.33498 9.375-0.9375zm832.97-0.469c0-1.1794-2.3061-1.4398-14.297-1.6143l-14.297-0.20807 14.297-0.2851c8.327-0.16605 14.356-0.66637 14.438-1.1982 0.4844-3.1451 0.19987-3.264-9.0469-3.7784l-9.375-0.52156 9.6647-0.18156c17.821-0.33478 9.7679-2.0566-9.6184-2.0566h-18.124l-0.56639 2.2567c-0.31151 1.2412-0.82425 2.9287-1.1394 3.75-0.4488 1.1695 0.10935 1.5238 2.5741 1.6338 3.129 0.13966 3.131 0.1426 0.33468 0.50906-4.1353 0.54195-5.3456 1.0982-4.6916 2.1564 1.0453 1.6914 39.848 1.2414 39.848-0.46213zm-24.141-7.6775c0.90235-0.23581 2.3789-0.23581 3.2812 0 0.90235 0.23581 0.16407 0.42874-1.6406 0.42874s-2.543-0.19293-1.6406-0.42874zm102.35 7.8277c-0.2652-0.69083 0.17-1.7972 0.9669-2.4585 3.5364-2.935 1.6206-4.5003-2.6252-2.1448-1.6265 0.90234-3.0459 1.659-3.1543 1.6816-1.4783 0.30691 1.3844 4.1778 3.0895 4.1778 1.4577 0 2.0417-0.42572 1.7231-1.256zm4.6647-3.291c-0.6867-0.90485-2.2472 1.163-2.2351 2.9617 0.013 1.97 0.065 1.9581 1.249-0.2897 0.6793-1.2891 1.123-2.4915 0.9861-2.672zm21.905 2.672c-0.4263-2.2476-4.4663-2.3962-4.4663-0.16438 0 1.3792 0.5936 1.8071 2.3665 1.7058 1.5545-0.0888 2.2751-0.61777 2.0998-1.5414zm-75.329-2.5781c-0.78282-4.3299-0.75019-4.293-3.1287-3.538-2.6713 0.84784-2.5676 4.5922 0.16369 5.9095 3.3342 1.608 3.6402 1.3633 2.965-2.3714zm64.301 2.5781c0-0.51562-1.1602-0.90785-2.5781-0.87161-2.2845 0.05839-2.3647 0.15764-0.7031 0.87161 2.5606 1.1004 3.2812 1.1004 3.2812 0zm-986.66-4.433c-0.95298-0.95298-1.7393 0.48177-0.95739 1.7469 0.59066 0.9557 0.81148 0.95644 1.129 0.0037 0.21712-0.65136 0.13988-1.4392-0.17164-1.7507zm940.66 1.621c-1.8342-1.1854-3.75-1.1854-3.75 0 0 0.51562 1.1602 0.93104 2.5781 0.92314 2.009-0.01118 2.2677-0.21497 1.1719-0.92314zm-940.29-7.575c0-2.0966-4.2648-4.5066-5.5451-3.1335-2.034 2.182-2.116 5.084-0.143 5.084 1.3504 0 1.9382-0.60338 1.9382-1.9898 0-1.6259 0.24697-1.7848 1.3505-0.86896 0.74279 0.61646 1.093 1.792 0.77818 2.6123-0.37956 0.98912-0.2029 1.2632 0.52448 0.81363 0.60325-0.37283 1.0968-1.5058 1.0968-2.5176zm937.06-0.65651c-0.3844-1.002-0.019-1.2366 1.3636-0.87507 1.039 0.27168 1.889 0.11159 1.889-0.35576s-0.5983-0.84973-1.3296-0.84973c-2.7919 0-4.2954 1.2238-4.2954 3.4963 0 2.0208 0.2074 2.1862 1.4489 1.1557 0.7969-0.66137 1.2126-1.8186 0.9235-2.5715zm-51.577-0.22844c0.32643-0.5282 0.31781-2.2157-0.0187-3.75l-0.61313-2.7896h-8.3631c-4.9503 0-8.363 0.38256-8.363 0.9375 0 0.51562 0.63281 0.9375 1.4062 0.9375 0.77344 0 1.4062 0.60268 1.4062 1.3393 0 3.6365 12.576 6.5116 14.545 3.3253zm-11.03-4.3888c1.1602-0.22346 3.0586-0.22346 4.2188 0s0.21094 0.40628-2.1094 0.40628-3.2695-0.18283-2.1094-0.40628zm65.605-0.90523c0.2326-0.70708-0.3506-0.91196-1.6377-0.57536-1.3704 0.35836-1.9419 0.11405-1.8174-0.77689 0.3265-2.3381-0.024-3.6434-0.9782-3.6434-1.0631 0-1.2896 4.9604-0.273 5.977 0.9798 0.97973 4.2879 0.28986 4.7063-0.9814zm-944.74-2.418c0.02761-1.9533 0.12197-1.988 1.2752-0.46875 1.6992 2.2384 2.7439 2.076 1.5075-0.23438-0.55191-1.0312-1.3299-1.875-1.7288-1.875-1.608 0-4.1394 2.598-3.5153 3.6078 1.0998 1.7794 2.4296 1.2231 2.4615-1.0297zm888.21-1.875c-0.92737-3.0694-1.0329-3.0971-10.505-2.7567-11.427 0.41067-11.122 1.9035 0.46875 2.2922l9.1406 0.30649-10.547 0.19621c-14.59 0.27142-13.924 2.0712 0.76632 2.0712 11.296 0 11.312-0.0032 10.676-2.1094zm-26.67-1.64c0-0.51562-0.60791-0.9375-1.3509-0.9375-0.74301 0-1.6117 0.42188-1.9303 0.9375-0.31867 0.51562 0.28924 0.9375 1.3509 0.9375s1.9303-0.42188 1.9303-0.9375zm6.5625 0c0-0.51562-1.0547-0.9375-2.3438-0.9375s-2.3438 0.42188-2.3438 0.9375 1.0547 0.9375 2.3438 0.9375 2.3438-0.42188 2.3438-0.9375zm-869.66-1.407c0.2968-0.77344 1.5021-1.4127 2.6784-1.4206 1.6279-0.01093 1.8212-0.21535 0.80933-0.85585-1.3916-0.88081-5.7018 1.2759-5.7018 2.853 0 1.3637 1.6326 0.93852 2.214-0.57657zm888.33-1.966c0.94631-0.91541-1.0663-1.0153-11.641-0.57749-6.6166 0.27392-10.478 0.75769-9.375 1.1746 1.8175 0.68714 20.229 0.16403 21.016-0.59711zm55.48-0.377c2.0092 0 2.4365-1.4392 0.625-2.1053-2.0223-0.74367-3.5185 0.3075-3.4416 2.4178 0.04 1.1172 0.2868 1.5039 0.5469 0.85938 0.2601-0.64453 1.2815-1.1719 2.2697-1.1719zm-57.28-2.908c0-0.98943-16.688-0.40434-17.714 0.62104-0.22631 0.22632 3.6666 0.41148 8.651 0.41148 5.9727 0 9.0625-0.35203 9.0625-1.0325zm-1.87-2.718c0-1.0634-3.7898-1.0634-7.9688 0-2.3147 0.589-1.8584 0.73529 2.5781 0.82658 3.0427 0.06261 5.3906-0.29742 5.3906-0.82658zm60.938-0.53395c0-0.97719-0.6839-1.3708-2.036-1.1719-3 0.442-3.4 2.644-0.4 2.644 1.5754 0 2.4218-0.51424 2.4218-1.4715zm-63.498-2.8935c-0.63469-0.2568-1.9003-0.27244-2.8125-0.03473-0.9121 0.2377-0.39282 0.44781 1.1541 0.46691 1.5469 0.01911 2.2932-0.17537 1.6584-0.43218z"/>
</svg>
